<svg xmlns="http://www.w3.org/2000/svg" viewBox="0 0 149.2 149.2"><defs><style>.cls-1{fill:#333;}</style></defs><title>资源 19Fonedog logo</title><g id="图层_2" data-name="图层 2"><g id="图层_1-2" data-name="图层 1"><circle class="cls-1" cx="80.2" cy="52.35" r="3.73"/><path class="cls-1" d="M74.05,0A74.33,74.33,0,0,0,23.92,19.86a76.29,76.29,0,0,0-7.37,7.88A74.74,74.74,0,0,0,4,98.62a1.57,1.57,0,0,0,2.5.69,54,54,0,0,0,16.79-24.9q-.09,1.41-.09,2.85a45.82,45.82,0,0,0,5.73,22.25l.06,0a20.49,20.49,0,0,0,38.62-9.54v-.46a20.45,20.45,0,0,0-8.13-15.88l-.13-.1c-.47-.36-.93-.73-1.38-1.12A28.68,28.68,0,0,1,47.86,50.52a29.12,29.12,0,0,1,.2-3.39,28.52,28.52,0,0,1,.68-3.73,16.87,16.87,0,0,1,16.16-12h.36l.88,0q.56,0,1.11.12h0A16.28,16.28,0,0,1,72,33h0l.26.13,0,0a34.45,34.45,0,0,1,10.33,6.27,33.92,33.92,0,0,1,3.86,4q.51.61,1,1.26c.67.82,1.38,1.63,2.12,2.42.4.43.81.87,1.23,1.29a48.18,48.18,0,0,0,21.23,12.41h0l1.15.31c.86.21,1.72.4,2.59.57a8.36,8.36,0,0,0-1.63,5,8.44,8.44,0,0,0,15.49,4.66c.14-.21.26-.42.39-.64h0l0,.11s0,.06,0,.08,0,0,0,0h0a1.59,1.59,0,0,1-.07.2,5.13,5.13,0,0,1-.32.8,32.3,32.3,0,0,1-32.16,28.71c-.71,0-1.42,0-2.11-.07-1-.06-2-.17-2.92-.32-.77,0-1.55-.07-2.33-.07a34.25,34.25,0,0,0-31.92,21.82,33.79,33.79,0,0,0-2.27,10.53q-.06.95-.06,1.89a33.75,33.75,0,0,0,.5,5.81,10.27,10.27,0,0,0,8.86,8.46A74.6,74.6,0,1,0,74.05,0Zm55.73,70.08c0-.26,0-.52,0-.78,0,.07,0,.15,0,.22A5.25,5.25,0,0,1,129.78,70.08Zm0-3.65a5,5,0,0,1,.28.91A7.35,7.35,0,0,0,129.81,66.43Zm.46,2.19c0-.22,0-.44-.06-.65A4.62,4.62,0,0,1,130.27,68.62Zm0,.66V69.2a.06.06,0,0,0,0,0v-.41a.71.71,0,0,1,0,.14c0,.09,0,.18,0,.27S130.26,69.24,130.26,69.28Z"/></g></g></svg>