<svg xmlns="http://www.w3.org/2000/svg" xmlns:xlink="http://www.w3.org/1999/xlink" viewBox="0 0 40 43.59"><defs><style>.cls-1{fill:url(#未命名的渐变_11);}.cls-2{fill:url(#未命名的渐变_11-2);}.cls-3{fill:url(#未命名的渐变_12);}.cls-10,.cls-13,.cls-14,.cls-4,.cls-5,.cls-6,.cls-7,.cls-8,.cls-9{opacity:0.6;}.cls-4{fill:url(#未命名的渐变_12-2);}.cls-5{fill:url(#未命名的渐变_12-3);}.cls-6{fill:url(#未命名的渐变_12-4);}.cls-7{fill:url(#未命名的渐变_12-5);}.cls-8{fill:url(#未命名的渐变_12-6);}.cls-9{fill:url(#未命名的渐变_12-7);}.cls-10{fill:url(#未命名的渐变_12-8);}.cls-11{fill:url(#未命名的渐变_11-3);}.cls-12{fill:url(#未命名的渐变_11-4);}.cls-13{fill:url(#未命名的渐变_12-9);}.cls-14{fill:url(#未命名的渐变_12-10);}</style><linearGradient id="未命名的渐变_11" x1="24.11" y1="44.7" x2="1.96" y2="19.28" gradientUnits="userSpaceOnUse"><stop offset="0" stop-color="#a3cfff"/><stop offset="1" stop-color="#4677b3"/></linearGradient><linearGradient id="未命名的渐变_11-2" x1="31.42" y1="38.2" x2="13.58" y2="11.86" xlink:href="#未命名的渐变_11"/><linearGradient id="未命名的渐变_12" x1="3.39" y1="4.61" x2="30.59" y2="42.59" gradientUnits="userSpaceOnUse"><stop offset="0" stop-color="#a3cfff"/><stop offset="1" stop-color="#5c95da"/></linearGradient><linearGradient id="未命名的渐变_12-2" x1="8.02" y1="10.16" x2="39.88" y2="10.16" xlink:href="#未命名的渐变_12"/><linearGradient id="未命名的渐变_12-3" x1="8.02" y1="9.87" x2="39.88" y2="9.87" xlink:href="#未命名的渐变_12"/><linearGradient id="未命名的渐变_12-4" x1="8.02" y1="10.81" x2="39.88" y2="10.81" xlink:href="#未命名的渐变_12"/><linearGradient id="未命名的渐变_12-5" x1="8.07" y1="24.42" x2="39.86" y2="24.42" xlink:href="#未命名的渐变_12"/><linearGradient id="未命名的渐变_12-6" x1="8.02" y1="12.91" x2="39.88" y2="12.91" xlink:href="#未命名的渐变_12"/><linearGradient id="未命名的渐变_12-7" x1="16.1" y1="24.97" x2="24.5" y2="40.15" xlink:href="#未命名的渐变_12"/><linearGradient id="未命名的渐变_12-8" x1="-16.11" y1="32.03" x2="32.89" y2="32.03" xlink:href="#未命名的渐变_12"/><linearGradient id="未命名的渐变_11-3" x1="49.33" y1="32.57" x2="10" y2="32.4" xlink:href="#未命名的渐变_11"/><linearGradient id="未命名的渐变_11-4" x1="59.55" y1="39.32" x2="17.11" y2="13.78" xlink:href="#未命名的渐变_11"/><linearGradient id="未命名的渐变_12-9" x1="8.01" y1="22.56" x2="39.88" y2="22.56" xlink:href="#未命名的渐变_12"/><linearGradient id="未命名的渐变_12-10" x1="-16.14" y1="22.56" x2="32.89" y2="22.56" xlink:href="#未命名的渐变_12"/></defs><title>资源 15PowerMyMac</title><g id="图层_2" data-name="图层 2"><g id="图层_1-2" data-name="图层 1"><path class="cls-1" d="M20.91,40,20,40l-.91,0Z"/><path class="cls-2" d="M40,20v.41a20,20,0,0,1-5.12,13A20.49,20.49,0,0,1,32,36,19.9,19.9,0,0,1,20.91,40H8.39a24.45,24.45,0,0,0,14.38-4.66c.7-.52,1.39-1.07,2-1.65s1.28-1.23,1.87-1.89A24.65,24.65,0,0,0,31,24.91c.14-.32.27-.65.39-1s.31-.89.44-1.34a.06.06,0,0,0,0,0,16.45,16.45,0,0,0,.2-2.55c0-.39,0-.79,0-1.17a.28.28,0,0,1,0,.09v-.06A12.06,12.06,0,0,0,20.59,8H19.41a12.06,12.06,0,0,0-11.28,10,1.23,1.23,0,0,1,0-.19A15.59,15.59,0,0,1,9.56,13,16.1,16.1,0,0,1,20,4.47a14.78,14.78,0,0,1,1.61-.32A15.34,15.34,0,0,1,24,4a15.93,15.93,0,0,1,6.8,1.51A16.36,16.36,0,0,1,34.54,8c.2.18.4.36.59.55l.29.28.28.29.27.31.27.3.06.07c.06.08.13.16.19.25a3.92,3.92,0,0,1,.25.32l.25.32.23.34.22.33.22.35.21.35.2.36.19.36.18.37a3.73,3.73,0,0,1,.16.35l0,.06a2.88,2.88,0,0,1,.13.31l0,.06c.05.11.09.23.14.35s.19.52.28.78a0,0,0,0,0,0,0c0,.12.08.24.11.37s.07.24.11.36c.08.3.15.6.22.9,0,.12,0,.24.07.36s.05.34.08.51.07.5.1.75,0,.29,0,.43l0,.4v.08c0,.12,0,.25,0,.39Z"/><path class="cls-3" d="M39.82,17.38a.86.86,0,0,1,0,.16c0-.17-.05-.34-.08-.51s0-.24-.07-.36c-.07-.3-.14-.6-.22-.9,0-.12-.07-.24-.11-.36s-.07-.25-.11-.37a0,0,0,0,1,0,0c-.09-.26-.18-.52-.28-.78s-.09-.24-.14-.35l0-.06a2.88,2.88,0,0,0-.13-.31l0-.06a3.73,3.73,0,0,0-.16-.35l-.18-.37-.19-.36-.2-.36-.21-.35-.22-.35L37.22,11,37,10.64l-.25-.32a3.92,3.92,0,0,0-.25-.32c-.06-.09-.13-.17-.19-.25l-.06-.07L36,9.38l-.27-.31-.28-.29-.29-.28c-.19-.19-.39-.37-.59-.55a16.36,16.36,0,0,0-3.77-2.47A15.93,15.93,0,0,0,24,4a15.34,15.34,0,0,0-2.36.18A14.78,14.78,0,0,0,20,4.47,16.1,16.1,0,0,0,9.56,13a15.59,15.59,0,0,0-1.45,4.76c0,.36-.09.72-.12,1.09,0-.27,0-.54,0-.82V43.59H2.32A2.32,2.32,0,0,1,0,41.27V19.59a20,20,0,0,1,7.23-15l.45-.36c.52-.41,1.07-.8,1.63-1.16A19.92,19.92,0,0,1,20,0a20.27,20.27,0,0,1,2.83.2A20,20,0,0,1,36,8,19.75,19.75,0,0,1,39.82,17.38Z"/><path class="cls-4" d="M36.74,10.32a3.92,3.92,0,0,0-.25-.32A3.92,3.92,0,0,1,36.74,10.32Z"/><path class="cls-5" d="M36.49,10c-.06-.09-.13-.17-.19-.25C36.36,9.83,36.43,9.91,36.49,10Z"/><path class="cls-6" d="M37,10.64l.23.34Z"/><path class="cls-7" d="M31.4,23.93c-.12.33-.25.66-.39,1C31.15,24.59,31.27,24.26,31.4,23.93Z"/><path class="cls-8" d="M38.26,12.73l.18.37Z"/><path class="cls-9" d="M21,32l-1,0-1,0Z"/><path class="cls-10" d="M21,32l-1,0-1,0Z"/><path class="cls-11" d="M31,24.91a24.65,24.65,0,0,1-4.33,6.87c-.59.66-1.22,1.29-1.87,1.89s-1.34,1.13-2,1.65A24.45,24.45,0,0,1,8.39,40H8V32H19l1,0,1,0c.34,0,.67-.07,1-.13a12,12,0,0,0,9-7Z"/><path class="cls-12" d="M32,21.18c0,.46-.08.92-.15,1.37a.06.06,0,0,1,0,0c-.13.45-.28.9-.44,1.34A12.59,12.59,0,0,0,32,21.18Z"/><path class="cls-13" d="M32,21.18c0,.46-.08.92-.15,1.37a.06.06,0,0,1,0,0c-.13.45-.28.9-.44,1.34A12.59,12.59,0,0,0,32,21.18Z"/><path class="cls-14" d="M32,21.18c0,.46-.08.92-.15,1.37a.06.06,0,0,1,0,0c-.13.45-.28.9-.44,1.34A12.59,12.59,0,0,0,32,21.18Z"/></g></g></svg>