<svg xmlns="http://www.w3.org/2000/svg" xmlns:xlink="http://www.w3.org/1999/xlink" viewBox="0 0 40 40"><defs><style>.cls-1{fill:url(#未命名的渐变_11);}.cls-2{fill:url(#未命名的渐变_12);}.cls-3{fill:url(#未命名的渐变_11-2);}</style><linearGradient id="未命名的渐变_11" x1="1972.06" y1="-2866.3" x2="1949.71" y2="-2888.66" gradientTransform="translate(2904.93 1990.31) rotate(-90)" gradientUnits="userSpaceOnUse"><stop offset="0" stop-color="#a3cfff"/><stop offset="1" stop-color="#4677b3"/></linearGradient><linearGradient id="未命名的渐变_12" x1="1955.72" y1="-2899.55" x2="1982.82" y2="-2872.45" gradientTransform="translate(2904.93 1990.31) rotate(-90)" gradientUnits="userSpaceOnUse"><stop offset="0" stop-color="#a3cfff"/><stop offset="1" stop-color="#5c95da"/></linearGradient><linearGradient id="未命名的渐变_11-2" x1="1990.55" y1="-2881.59" x2="1969.27" y2="-2902.87" xlink:href="#未命名的渐变_11"/></defs><title>资源 12iOS System Recovery</title><g id="图层_2" data-name="图层 2"><g id="图层_1-2" data-name="图层 1"><path class="cls-1" d="M34.1,13.82A5.9,5.9,0,0,1,40,19.37c0,.15,0,.3,0,.44a21.77,21.77,0,0,1-.19,2.91A20,20,0,0,1,17.89,39.89a.3.3,0,0,1-.18-.51L20,37.09l2.95-3,5.59-5.59a12.7,12.7,0,0,0,1.53-1.86,12.39,12.39,0,0,0,.8-1.41c.08-.16.15-.32.22-.48a12.15,12.15,0,0,0,0-9.71.31.31,0,0,0-.49-.09l-1.22,1.23A5.88,5.88,0,0,1,34.1,13.82Z"/><path class="cls-2" d="M31.05,3.33a20.17,20.17,0,0,1,2.87,2.31l.22.22.22.22a21,21,0,0,1,2.29,2.83A20,20,0,0,1,39.77,17,21.44,21.44,0,0,1,40,19.37a5.9,5.9,0,0,0-10.65-3.14L25.27,20.3l-5,5-5.59,5.6-.47.46L9.1,36.46l-.19.19a20.27,20.27,0,0,1-2.83-2.29l-.22-.22-.22-.22a20.25,20.25,0,0,1-2.32-2.87A20,20,0,0,1,.22,23a2,2,0,0,0,0-.24C.09,22,0,21.29,0,20.58a5.91,5.91,0,0,0,10.73,3.06l4-4,4.95-4.95,5.6-5.6.47-.47Z"/><path class="cls-3" d="M22.1.11a.3.3,0,0,1,.18.51L20,2.91l-2.95,3-5.6,5.59a12,12,0,0,0-2.33,3.27l-.21.46a12.14,12.14,0,0,0,0,9.69.3.3,0,0,0,.49.08l1.32-1.31A5.91,5.91,0,0,1,0,20.58c0-.15,0-.29,0-.43A19.88,19.88,0,0,1,5.86,5.86,20,20,0,0,1,17.28.18,20.46,20.46,0,0,1,22.1.11Z"/></g></g></svg>